<?xml version="1.0" encoding="iso-8859-1"?>
<!-- Uploaded to: SVG Repo, www.svgrepo.com, Generator: SVG Repo Mixer Tools -->
<!DOCTYPE svg PUBLIC "-//W3C//DTD SVG 1.1//EN" "http://www.w3.org/Graphics/SVG/1.1/DTD/svg11.dtd">
<svg fill="#000000" version="1.1" id="Capa_1" xmlns="http://www.w3.org/2000/svg" xmlns:xlink="http://www.w3.org/1999/xlink" 
	 width="800px" height="800px" viewBox="0 0 383.235 383.235"
	 xml:space="preserve">
<g>
	<g>
		<g>
			<path d="M322.618,73.735h-38V55.096C284.618,24.716,259.902,0,229.521,0h-75.808c-30.38,0-55.096,24.716-55.096,55.096v18.639
				h-38c-27.614,0-50,22.386-50,50v62.883h362v-62.883C372.618,96.12,350.232,73.735,322.618,73.735z M244.618,73.735h-106V55.096
				c0-8.324,6.771-15.096,15.096-15.096h75.809c8.324,0,15.096,6.772,15.096,15.096L244.618,73.735L244.618,73.735z"/>
			<path d="M323.284,244.333c0,6.425-5.207,11.632-11.631,11.632h-41.404c-6.424,0-11.631-5.207-11.631-11.632v-20.702h-134v20.702
				c0,6.425-5.207,11.632-11.631,11.632H71.581c-6.422,0-11.629-5.207-11.629-11.632v-20.702H10.618v109.604
				c0,27.613,22.386,50,50,50h262c27.614,0,50-22.387,50-50V223.631h-49.334V244.333L323.284,244.333z"/>
		</g>
	</g>
</g>
</svg>